<svg xmlns="http://www.w3.org/2000/svg" viewBox="0 0 800 800" role="img" aria-label="Normal chessboard starting position">
  <rect width="800" height="800" fill="#15100a"/>
  <g transform="translate(32 32)">
    <rect width="736" height="736" rx="10" fill="#15100a"/>
    <g transform="translate(16 16)">
      <rect x="0" y="0" width="88" height="88" fill="#eddcb6"/><rect x="88" y="0" width="88" height="88" fill="#5d7b69"/><rect x="176" y="0" width="88" height="88" fill="#eddcb6"/><rect x="264" y="0" width="88" height="88" fill="#5d7b69"/><rect x="352" y="0" width="88" height="88" fill="#eddcb6"/><rect x="440" y="0" width="88" height="88" fill="#5d7b69"/><rect x="528" y="0" width="88" height="88" fill="#eddcb6"/><rect x="616" y="0" width="88" height="88" fill="#5d7b69"/>
      <rect x="0" y="88" width="88" height="88" fill="#5d7b69"/><rect x="88" y="88" width="88" height="88" fill="#eddcb6"/><rect x="176" y="88" width="88" height="88" fill="#5d7b69"/><rect x="264" y="88" width="88" height="88" fill="#eddcb6"/><rect x="352" y="88" width="88" height="88" fill="#5d7b69"/><rect x="440" y="88" width="88" height="88" fill="#eddcb6"/><rect x="528" y="88" width="88" height="88" fill="#5d7b69"/><rect x="616" y="88" width="88" height="88" fill="#eddcb6"/>
      <rect x="0" y="176" width="88" height="88" fill="#eddcb6"/><rect x="88" y="176" width="88" height="88" fill="#5d7b69"/><rect x="176" y="176" width="88" height="88" fill="#eddcb6"/><rect x="264" y="176" width="88" height="88" fill="#5d7b69"/><rect x="352" y="176" width="88" height="88" fill="#eddcb6"/><rect x="440" y="176" width="88" height="88" fill="#5d7b69"/><rect x="528" y="176" width="88" height="88" fill="#eddcb6"/><rect x="616" y="176" width="88" height="88" fill="#5d7b69"/>
      <rect x="0" y="264" width="88" height="88" fill="#5d7b69"/><rect x="88" y="264" width="88" height="88" fill="#eddcb6"/><rect x="176" y="264" width="88" height="88" fill="#5d7b69"/><rect x="264" y="264" width="88" height="88" fill="#eddcb6"/><rect x="352" y="264" width="88" height="88" fill="#5d7b69"/><rect x="440" y="264" width="88" height="88" fill="#eddcb6"/><rect x="528" y="264" width="88" height="88" fill="#5d7b69"/><rect x="616" y="264" width="88" height="88" fill="#eddcb6"/>
      <rect x="0" y="352" width="88" height="88" fill="#eddcb6"/><rect x="88" y="352" width="88" height="88" fill="#5d7b69"/><rect x="176" y="352" width="88" height="88" fill="#eddcb6"/><rect x="264" y="352" width="88" height="88" fill="#5d7b69"/><rect x="352" y="352" width="88" height="88" fill="#eddcb6"/><rect x="440" y="352" width="88" height="88" fill="#5d7b69"/><rect x="528" y="352" width="88" height="88" fill="#eddcb6"/><rect x="616" y="352" width="88" height="88" fill="#5d7b69"/>
      <rect x="0" y="440" width="88" height="88" fill="#5d7b69"/><rect x="88" y="440" width="88" height="88" fill="#eddcb6"/><rect x="176" y="440" width="88" height="88" fill="#5d7b69"/><rect x="264" y="440" width="88" height="88" fill="#eddcb6"/><rect x="352" y="440" width="88" height="88" fill="#5d7b69"/><rect x="440" y="440" width="88" height="88" fill="#eddcb6"/><rect x="528" y="440" width="88" height="88" fill="#5d7b69"/><rect x="616" y="440" width="88" height="88" fill="#eddcb6"/>
      <rect x="0" y="528" width="88" height="88" fill="#eddcb6"/><rect x="88" y="528" width="88" height="88" fill="#5d7b69"/><rect x="176" y="528" width="88" height="88" fill="#eddcb6"/><rect x="264" y="528" width="88" height="88" fill="#5d7b69"/><rect x="352" y="528" width="88" height="88" fill="#eddcb6"/><rect x="440" y="528" width="88" height="88" fill="#5d7b69"/><rect x="528" y="528" width="88" height="88" fill="#eddcb6"/><rect x="616" y="528" width="88" height="88" fill="#5d7b69"/>
      <rect x="0" y="616" width="88" height="88" fill="#5d7b69"/><rect x="88" y="616" width="88" height="88" fill="#eddcb6"/><rect x="176" y="616" width="88" height="88" fill="#5d7b69"/><rect x="264" y="616" width="88" height="88" fill="#eddcb6"/><rect x="352" y="616" width="88" height="88" fill="#5d7b69"/><rect x="440" y="616" width="88" height="88" fill="#eddcb6"/><rect x="528" y="616" width="88" height="88" fill="#5d7b69"/><rect x="616" y="616" width="88" height="88" fill="#eddcb6"/>
    </g>
    <g font-family="Georgia, 'Times New Roman', serif" font-size="62" font-weight="700" text-anchor="middle" dominant-baseline="central">
      <g fill="#10100d"><text x="60" y="60">♜</text><text x="148" y="60">♞</text><text x="236" y="60">♝</text><text x="324" y="60">♛</text><text x="412" y="60">♚</text><text x="500" y="60">♝</text><text x="588" y="60">♞</text><text x="676" y="60">♜</text></g>
      <g fill="#10100d"><text x="60" y="148">♟</text><text x="148" y="148">♟</text><text x="236" y="148">♟</text><text x="324" y="148">♟</text><text x="412" y="148">♟</text><text x="500" y="148">♟</text><text x="588" y="148">♟</text><text x="676" y="148">♟</text></g>
      <g fill="#f6edd9" stroke="#17120d" stroke-width="1.5"><text x="60" y="588">♙</text><text x="148" y="588">♙</text><text x="236" y="588">♙</text><text x="324" y="588">♙</text><text x="412" y="588">♙</text><text x="500" y="588">♙</text><text x="588" y="588">♙</text><text x="676" y="588">♙</text></g>
      <g fill="#f6edd9" stroke="#17120d" stroke-width="1.5"><text x="60" y="676">♖</text><text x="148" y="676">♘</text><text x="236" y="676">♗</text><text x="324" y="676">♕</text><text x="412" y="676">♔</text><text x="500" y="676">♗</text><text x="588" y="676">♘</text><text x="676" y="676">♖</text></g>
    </g>
  </g>
</svg>
